<?xml version="1.0" encoding="UTF-8"?>
<svg xmlns="http://www.w3.org/2000/svg" xmlns:xlink="http://www.w3.org/1999/xlink" width="136.46" height="95.64" viewBox="0 0 136.46 95.64">
<defs>
<clipPath id="clip-1786204754120731--0">
<path clip-rule="nonzero" d="M 0 94 L 14 94 L 14 95.273438 L 0 95.273438 Z M 0 94 "/>
</clipPath>
<clipPath id="clip-1786204754120731--1">
<path clip-rule="nonzero" d="M 13 88 L 14 88 L 14 95.273438 L 13 95.273438 Z M 13 88 "/>
</clipPath>
<clipPath id="clip-1786204754120731--2">
<path clip-rule="nonzero" d="M 0 88 L 1 88 L 1 95.273438 L 0 95.273438 Z M 0 88 "/>
</clipPath>
<clipPath id="clip-1786204754120731--3">
<path clip-rule="nonzero" d="M 13 94 L 28 94 L 28 95.273438 L 13 95.273438 Z M 13 94 "/>
</clipPath>
<clipPath id="clip-1786204754120731--4">
<path clip-rule="nonzero" d="M 27 88 L 28 88 L 28 95.273438 L 27 95.273438 Z M 27 88 "/>
</clipPath>
<clipPath id="clip-1786204754120731--5">
<path clip-rule="nonzero" d="M 27 94 L 42 94 L 42 95.273438 L 27 95.273438 Z M 27 94 "/>
</clipPath>
<clipPath id="clip-1786204754120731--6">
<path clip-rule="nonzero" d="M 40 88 L 42 88 L 42 95.273438 L 40 95.273438 Z M 40 88 "/>
</clipPath>
<clipPath id="clip-1786204754120731--7">
<path clip-rule="nonzero" d="M 40 94 L 55 94 L 55 95.273438 L 40 95.273438 Z M 40 94 "/>
</clipPath>
<clipPath id="clip-1786204754120731--8">
<path clip-rule="nonzero" d="M 54 88 L 55 88 L 55 95.273438 L 54 95.273438 Z M 54 88 "/>
</clipPath>
<clipPath id="clip-1786204754120731--9">
<path clip-rule="nonzero" d="M 54 94 L 69 94 L 69 95.273438 L 54 95.273438 Z M 54 94 "/>
</clipPath>
<clipPath id="clip-1786204754120731--10">
<path clip-rule="nonzero" d="M 67 88 L 69 88 L 69 95.273438 L 67 95.273438 Z M 67 88 "/>
</clipPath>
<clipPath id="clip-1786204754120731--11">
<path clip-rule="nonzero" d="M 67 94 L 82 94 L 82 95.273438 L 67 95.273438 Z M 67 94 "/>
</clipPath>
<clipPath id="clip-1786204754120731--12">
<path clip-rule="nonzero" d="M 81 88 L 82 88 L 82 95.273438 L 81 95.273438 Z M 81 88 "/>
</clipPath>
<clipPath id="clip-1786204754120731--13">
<path clip-rule="nonzero" d="M 81 94 L 96 94 L 96 95.273438 L 81 95.273438 Z M 81 94 "/>
</clipPath>
<clipPath id="clip-1786204754120731--14">
<path clip-rule="nonzero" d="M 94 88 L 96 88 L 96 95.273438 L 94 95.273438 Z M 94 88 "/>
</clipPath>
<clipPath id="clip-1786204754120731--15">
<path clip-rule="nonzero" d="M 94 94 L 109 94 L 109 95.273438 L 94 95.273438 Z M 94 94 "/>
</clipPath>
<clipPath id="clip-1786204754120731--16">
<path clip-rule="nonzero" d="M 108 88 L 109 88 L 109 95.273438 L 108 95.273438 Z M 108 88 "/>
</clipPath>
<clipPath id="clip-1786204754120731--17">
<path clip-rule="nonzero" d="M 108 94 L 123 94 L 123 95.273438 L 108 95.273438 Z M 108 94 "/>
</clipPath>
<clipPath id="clip-1786204754120731--18">
<path clip-rule="nonzero" d="M 121 88 L 123 88 L 123 95.273438 L 121 95.273438 Z M 121 88 "/>
</clipPath>
<clipPath id="clip-1786204754120731--19">
<path clip-rule="nonzero" d="M 121 94 L 135.921875 94 L 135.921875 95.273438 L 121 95.273438 Z M 121 94 "/>
</clipPath>
<clipPath id="clip-1786204754120731--20">
<path clip-rule="nonzero" d="M 135 88 L 135.921875 88 L 135.921875 95.273438 L 135 95.273438 Z M 135 88 "/>
</clipPath>
<clipPath id="clip-1786204754120731--21">
<path clip-rule="nonzero" d="M 121 88 L 135.921875 88 L 135.921875 89 L 121 89 Z M 121 88 "/>
</clipPath>
<clipPath id="clip-1786204754120731--22">
<path clip-rule="nonzero" d="M 135 81 L 135.921875 81 L 135.921875 89 L 135 89 Z M 135 81 "/>
</clipPath>
<clipPath id="clip-1786204754120731--23">
<path clip-rule="nonzero" d="M 121 81 L 135.921875 81 L 135.921875 82 L 121 82 Z M 121 81 "/>
</clipPath>
<clipPath id="clip-1786204754120731--24">
<path clip-rule="nonzero" d="M 0 87 L 14 87 L 14 95.273438 L 0 95.273438 Z M 0 87 "/>
</clipPath>
<clipPath id="clip-1786204754120731--25">
<path clip-rule="nonzero" d="M 122 6 L 135.921875 6 L 135.921875 30 L 122 30 Z M 122 6 "/>
</clipPath>
<clipPath id="clip-1786204754120731--26">
<path clip-rule="nonzero" d="M 122 0.0078125 L 135.921875 0.0078125 L 135.921875 23 L 122 23 Z M 122 0.0078125 "/>
</clipPath>
<clipPath id="clip-1786204754120731--27">
<path clip-rule="nonzero" d="M 0 88 L 20 88 L 20 95.273438 L 0 95.273438 Z M 0 88 "/>
</clipPath>
<clipPath id="clip-1786204754120731--28">
<path clip-rule="nonzero" d="M 0 88 L 1 88 L 1 95.273438 L 0 95.273438 Z M 0 88 "/>
</clipPath>
<clipPath id="clip-1786204754120731--29">
<path clip-rule="nonzero" d="M 8 86 L 33 86 L 33 95.273438 L 8 95.273438 Z M 8 86 "/>
</clipPath>
<clipPath id="clip-1786204754120731--30">
<path clip-rule="nonzero" d="M 21 82 L 47 82 L 47 95.273438 L 21 95.273438 Z M 21 82 "/>
</clipPath>
<clipPath id="clip-1786204754120731--31">
<path clip-rule="nonzero" d="M 116 8 L 135.921875 8 L 135.921875 35 L 116 35 Z M 116 8 "/>
</clipPath>
<clipPath id="clip-1786204754120731--32">
<path clip-rule="nonzero" d="M 135 6 L 135.921875 6 L 135.921875 14 L 135 14 Z M 135 6 "/>
</clipPath>
<clipPath id="clip-1786204754120731--33">
<path clip-rule="nonzero" d="M 116 1 L 135.921875 1 L 135.921875 29 L 116 29 Z M 116 1 "/>
</clipPath>
<clipPath id="clip-1786204754120731--34">
<path clip-rule="nonzero" d="M 135 0.0078125 L 135.921875 0.0078125 L 135.921875 8 L 135 8 Z M 135 0.0078125 "/>
</clipPath>
<clipPath id="clip-1786204754120731--35">
<path clip-rule="nonzero" d="M 116 0.0078125 L 135.921875 0.0078125 L 135.921875 22 L 116 22 Z M 116 0.0078125 "/>
</clipPath>
</defs>
<g clip-path="url(#clip-1786204754120731--0)">
<path fill="none" stroke-width="0.3985" stroke-linecap="butt" stroke-linejoin="miter" stroke="rgb(0%, 0%, 0%)" stroke-opacity="1" stroke-miterlimit="10" d="M 0.000757099 -6.803483 L 13.605162 -6.803483 " transform="matrix(0.996058, 0, 0, -0.996058, 0.198465, 88.297552)"/>
</g>
<g clip-path="url(#clip-1786204754120731--1)">
<path fill="none" stroke-width="0.3985" stroke-linecap="butt" stroke-linejoin="miter" stroke="rgb(0%, 0%, 0%)" stroke-opacity="1" stroke-miterlimit="10" d="M 13.605162 -6.803483 L 13.605162 0.000679765 " transform="matrix(0.996058, 0, 0, -0.996058, 0.198465, 88.297552)"/>
</g>
<path fill="none" stroke-width="0.3985" stroke-linecap="butt" stroke-linejoin="miter" stroke="rgb(0%, 0%, 0%)" stroke-opacity="1" stroke-miterlimit="10" d="M 13.605162 0.000679765 L 0.000757099 0.000679765 " transform="matrix(0.996058, 0, 0, -0.996058, 0.198465, 88.297552)"/>
<g clip-path="url(#clip-1786204754120731--2)">
<path fill="none" stroke-width="0.3985" stroke-linecap="butt" stroke-linejoin="miter" stroke="rgb(0%, 0%, 0%)" stroke-opacity="1" stroke-miterlimit="10" d="M 0.000757099 0.000679765 L 0.000757099 -6.803483 " transform="matrix(0.996058, 0, 0, -0.996058, 0.198465, 88.297552)"/>
</g>
<g clip-path="url(#clip-1786204754120731--3)">
<path fill="none" stroke-width="0.3985" stroke-linecap="butt" stroke-linejoin="miter" stroke="rgb(0%, 0%, 0%)" stroke-opacity="1" stroke-miterlimit="10" d="M 13.605162 -6.803483 L 27.213488 -6.803483 " transform="matrix(0.996058, 0, 0, -0.996058, 0.198465, 88.297552)"/>
</g>
<g clip-path="url(#clip-1786204754120731--4)">
<path fill="none" stroke-width="0.3985" stroke-linecap="butt" stroke-linejoin="miter" stroke="rgb(0%, 0%, 0%)" stroke-opacity="1" stroke-miterlimit="10" d="M 27.213488 -6.803483 L 27.213488 0.000679765 " transform="matrix(0.996058, 0, 0, -0.996058, 0.198465, 88.297552)"/>
</g>
<path fill="none" stroke-width="0.3985" stroke-linecap="butt" stroke-linejoin="miter" stroke="rgb(0%, 0%, 0%)" stroke-opacity="1" stroke-miterlimit="10" d="M 27.213488 0.000679765 L 13.605162 0.000679765 " transform="matrix(0.996058, 0, 0, -0.996058, 0.198465, 88.297552)"/>
<g clip-path="url(#clip-1786204754120731--5)">
<path fill="none" stroke-width="0.3985" stroke-linecap="butt" stroke-linejoin="miter" stroke="rgb(0%, 0%, 0%)" stroke-opacity="1" stroke-miterlimit="10" d="M 27.213488 -6.803483 L 40.817892 -6.803483 " transform="matrix(0.996058, 0, 0, -0.996058, 0.198465, 88.297552)"/>
</g>
<g clip-path="url(#clip-1786204754120731--6)">
<path fill="none" stroke-width="0.3985" stroke-linecap="butt" stroke-linejoin="miter" stroke="rgb(0%, 0%, 0%)" stroke-opacity="1" stroke-miterlimit="10" d="M 40.817892 -6.803483 L 40.817892 0.000679765 " transform="matrix(0.996058, 0, 0, -0.996058, 0.198465, 88.297552)"/>
</g>
<path fill="none" stroke-width="0.3985" stroke-linecap="butt" stroke-linejoin="miter" stroke="rgb(0%, 0%, 0%)" stroke-opacity="1" stroke-miterlimit="10" d="M 40.817892 0.000679765 L 27.213488 0.000679765 " transform="matrix(0.996058, 0, 0, -0.996058, 0.198465, 88.297552)"/>
<g clip-path="url(#clip-1786204754120731--7)">
<path fill="none" stroke-width="0.3985" stroke-linecap="butt" stroke-linejoin="miter" stroke="rgb(0%, 0%, 0%)" stroke-opacity="1" stroke-miterlimit="10" d="M 40.817892 -6.803483 L 54.426218 -6.803483 " transform="matrix(0.996058, 0, 0, -0.996058, 0.198465, 88.297552)"/>
</g>
<g clip-path="url(#clip-1786204754120731--8)">
<path fill="none" stroke-width="0.3985" stroke-linecap="butt" stroke-linejoin="miter" stroke="rgb(0%, 0%, 0%)" stroke-opacity="1" stroke-miterlimit="10" d="M 54.426218 -6.803483 L 54.426218 0.000679765 " transform="matrix(0.996058, 0, 0, -0.996058, 0.198465, 88.297552)"/>
</g>
<path fill="none" stroke-width="0.3985" stroke-linecap="butt" stroke-linejoin="miter" stroke="rgb(0%, 0%, 0%)" stroke-opacity="1" stroke-miterlimit="10" d="M 54.426218 0.000679765 L 40.817892 0.000679765 " transform="matrix(0.996058, 0, 0, -0.996058, 0.198465, 88.297552)"/>
<g clip-path="url(#clip-1786204754120731--9)">
<path fill="none" stroke-width="0.3985" stroke-linecap="butt" stroke-linejoin="miter" stroke="rgb(0%, 0%, 0%)" stroke-opacity="1" stroke-miterlimit="10" d="M 54.426218 -6.803483 L 68.030623 -6.803483 " transform="matrix(0.996058, 0, 0, -0.996058, 0.198465, 88.297552)"/>
</g>
<g clip-path="url(#clip-1786204754120731--10)">
<path fill="none" stroke-width="0.3985" stroke-linecap="butt" stroke-linejoin="miter" stroke="rgb(0%, 0%, 0%)" stroke-opacity="1" stroke-miterlimit="10" d="M 68.030623 -6.803483 L 68.030623 0.000679765 " transform="matrix(0.996058, 0, 0, -0.996058, 0.198465, 88.297552)"/>
</g>
<path fill="none" stroke-width="0.3985" stroke-linecap="butt" stroke-linejoin="miter" stroke="rgb(0%, 0%, 0%)" stroke-opacity="1" stroke-miterlimit="10" d="M 68.030623 0.000679765 L 54.426218 0.000679765 " transform="matrix(0.996058, 0, 0, -0.996058, 0.198465, 88.297552)"/>
<g clip-path="url(#clip-1786204754120731--11)">
<path fill="none" stroke-width="0.3985" stroke-linecap="butt" stroke-linejoin="miter" stroke="rgb(0%, 0%, 0%)" stroke-opacity="1" stroke-miterlimit="10" d="M 68.030623 -6.803483 L 81.638949 -6.803483 " transform="matrix(0.996058, 0, 0, -0.996058, 0.198465, 88.297552)"/>
</g>
<g clip-path="url(#clip-1786204754120731--12)">
<path fill="none" stroke-width="0.3985" stroke-linecap="butt" stroke-linejoin="miter" stroke="rgb(0%, 0%, 0%)" stroke-opacity="1" stroke-miterlimit="10" d="M 81.638949 -6.803483 L 81.638949 0.000679765 " transform="matrix(0.996058, 0, 0, -0.996058, 0.198465, 88.297552)"/>
</g>
<path fill="none" stroke-width="0.3985" stroke-linecap="butt" stroke-linejoin="miter" stroke="rgb(0%, 0%, 0%)" stroke-opacity="1" stroke-miterlimit="10" d="M 81.638949 0.000679765 L 68.030623 0.000679765 " transform="matrix(0.996058, 0, 0, -0.996058, 0.198465, 88.297552)"/>
<g clip-path="url(#clip-1786204754120731--13)">
<path fill="none" stroke-width="0.3985" stroke-linecap="butt" stroke-linejoin="miter" stroke="rgb(0%, 0%, 0%)" stroke-opacity="1" stroke-miterlimit="10" d="M 81.638949 -6.803483 L 95.243353 -6.803483 " transform="matrix(0.996058, 0, 0, -0.996058, 0.198465, 88.297552)"/>
</g>
<g clip-path="url(#clip-1786204754120731--14)">
<path fill="none" stroke-width="0.3985" stroke-linecap="butt" stroke-linejoin="miter" stroke="rgb(0%, 0%, 0%)" stroke-opacity="1" stroke-miterlimit="10" d="M 95.243353 -6.803483 L 95.243353 0.000679765 " transform="matrix(0.996058, 0, 0, -0.996058, 0.198465, 88.297552)"/>
</g>
<path fill="none" stroke-width="0.3985" stroke-linecap="butt" stroke-linejoin="miter" stroke="rgb(0%, 0%, 0%)" stroke-opacity="1" stroke-miterlimit="10" d="M 95.243353 0.000679765 L 81.638949 0.000679765 " transform="matrix(0.996058, 0, 0, -0.996058, 0.198465, 88.297552)"/>
<g clip-path="url(#clip-1786204754120731--15)">
<path fill="none" stroke-width="0.3985" stroke-linecap="butt" stroke-linejoin="miter" stroke="rgb(0%, 0%, 0%)" stroke-opacity="1" stroke-miterlimit="10" d="M 95.243353 -6.803483 L 108.85168 -6.803483 " transform="matrix(0.996058, 0, 0, -0.996058, 0.198465, 88.297552)"/>
</g>
<g clip-path="url(#clip-1786204754120731--16)">
<path fill="none" stroke-width="0.3985" stroke-linecap="butt" stroke-linejoin="miter" stroke="rgb(0%, 0%, 0%)" stroke-opacity="1" stroke-miterlimit="10" d="M 108.85168 -6.803483 L 108.85168 0.000679765 " transform="matrix(0.996058, 0, 0, -0.996058, 0.198465, 88.297552)"/>
</g>
<path fill="none" stroke-width="0.3985" stroke-linecap="butt" stroke-linejoin="miter" stroke="rgb(0%, 0%, 0%)" stroke-opacity="1" stroke-miterlimit="10" d="M 108.85168 0.000679765 L 95.243353 0.000679765 " transform="matrix(0.996058, 0, 0, -0.996058, 0.198465, 88.297552)"/>
<g clip-path="url(#clip-1786204754120731--17)">
<path fill="none" stroke-width="0.3985" stroke-linecap="butt" stroke-linejoin="miter" stroke="rgb(0%, 0%, 0%)" stroke-opacity="1" stroke-miterlimit="10" d="M 108.85168 -6.803483 L 122.460006 -6.803483 " transform="matrix(0.996058, 0, 0, -0.996058, 0.198465, 88.297552)"/>
</g>
<g clip-path="url(#clip-1786204754120731--18)">
<path fill="none" stroke-width="0.3985" stroke-linecap="butt" stroke-linejoin="miter" stroke="rgb(0%, 0%, 0%)" stroke-opacity="1" stroke-miterlimit="10" d="M 122.460006 -6.803483 L 122.460006 0.000679765 " transform="matrix(0.996058, 0, 0, -0.996058, 0.198465, 88.297552)"/>
</g>
<path fill="none" stroke-width="0.3985" stroke-linecap="butt" stroke-linejoin="miter" stroke="rgb(0%, 0%, 0%)" stroke-opacity="1" stroke-miterlimit="10" d="M 122.460006 0.000679765 L 108.85168 0.000679765 " transform="matrix(0.996058, 0, 0, -0.996058, 0.198465, 88.297552)"/>
<g clip-path="url(#clip-1786204754120731--19)">
<path fill="none" stroke-width="0.3985" stroke-linecap="butt" stroke-linejoin="miter" stroke="rgb(0%, 0%, 0%)" stroke-opacity="1" stroke-miterlimit="10" d="M 122.460006 -6.803483 L 136.06441 -6.803483 " transform="matrix(0.996058, 0, 0, -0.996058, 0.198465, 88.297552)"/>
</g>
<g clip-path="url(#clip-1786204754120731--20)">
<path fill="none" stroke-width="0.3985" stroke-linecap="butt" stroke-linejoin="miter" stroke="rgb(0%, 0%, 0%)" stroke-opacity="1" stroke-miterlimit="10" d="M 136.06441 -6.803483 L 136.06441 0.000679765 " transform="matrix(0.996058, 0, 0, -0.996058, 0.198465, 88.297552)"/>
</g>
<g clip-path="url(#clip-1786204754120731--21)">
<path fill="none" stroke-width="0.3985" stroke-linecap="butt" stroke-linejoin="miter" stroke="rgb(0%, 0%, 0%)" stroke-opacity="1" stroke-miterlimit="10" d="M 136.06441 0.000679765 L 122.460006 0.000679765 " transform="matrix(0.996058, 0, 0, -0.996058, 0.198465, 88.297552)"/>
</g>
<path fill="none" stroke-width="0.3985" stroke-linecap="butt" stroke-linejoin="miter" stroke="rgb(0%, 0%, 0%)" stroke-opacity="1" stroke-miterlimit="10" d="M 13.605162 0.000679765 L 13.605162 6.804843 " transform="matrix(0.996058, 0, 0, -0.996058, 0.198465, 88.297552)"/>
<path fill="none" stroke-width="0.3985" stroke-linecap="butt" stroke-linejoin="miter" stroke="rgb(0%, 0%, 0%)" stroke-opacity="1" stroke-miterlimit="10" d="M 13.605162 6.804843 L 0.000757099 6.804843 " transform="matrix(0.996058, 0, 0, -0.996058, 0.198465, 88.297552)"/>
<path fill="none" stroke-width="0.3985" stroke-linecap="butt" stroke-linejoin="miter" stroke="rgb(0%, 0%, 0%)" stroke-opacity="1" stroke-miterlimit="10" d="M 0.000757099 6.804843 L 0.000757099 0.000679765 " transform="matrix(0.996058, 0, 0, -0.996058, 0.198465, 88.297552)"/>
<path fill="none" stroke-width="0.3985" stroke-linecap="butt" stroke-linejoin="miter" stroke="rgb(0%, 0%, 0%)" stroke-opacity="1" stroke-miterlimit="10" d="M 27.213488 0.000679765 L 27.213488 6.804843 " transform="matrix(0.996058, 0, 0, -0.996058, 0.198465, 88.297552)"/>
<path fill="none" stroke-width="0.3985" stroke-linecap="butt" stroke-linejoin="miter" stroke="rgb(0%, 0%, 0%)" stroke-opacity="1" stroke-miterlimit="10" d="M 27.213488 6.804843 L 13.605162 6.804843 " transform="matrix(0.996058, 0, 0, -0.996058, 0.198465, 88.297552)"/>
<path fill="none" stroke-width="0.3985" stroke-linecap="butt" stroke-linejoin="miter" stroke="rgb(0%, 0%, 0%)" stroke-opacity="1" stroke-miterlimit="10" d="M 40.817892 0.000679765 L 40.817892 6.804843 " transform="matrix(0.996058, 0, 0, -0.996058, 0.198465, 88.297552)"/>
<path fill="none" stroke-width="0.3985" stroke-linecap="butt" stroke-linejoin="miter" stroke="rgb(0%, 0%, 0%)" stroke-opacity="1" stroke-miterlimit="10" d="M 40.817892 6.804843 L 27.213488 6.804843 " transform="matrix(0.996058, 0, 0, -0.996058, 0.198465, 88.297552)"/>
<path fill="none" stroke-width="0.3985" stroke-linecap="butt" stroke-linejoin="miter" stroke="rgb(0%, 0%, 0%)" stroke-opacity="1" stroke-miterlimit="10" d="M 54.426218 0.000679765 L 54.426218 6.804843 " transform="matrix(0.996058, 0, 0, -0.996058, 0.198465, 88.297552)"/>
<path fill="none" stroke-width="0.3985" stroke-linecap="butt" stroke-linejoin="miter" stroke="rgb(0%, 0%, 0%)" stroke-opacity="1" stroke-miterlimit="10" d="M 54.426218 6.804843 L 40.817892 6.804843 " transform="matrix(0.996058, 0, 0, -0.996058, 0.198465, 88.297552)"/>
<path fill="none" stroke-width="0.3985" stroke-linecap="butt" stroke-linejoin="miter" stroke="rgb(0%, 0%, 0%)" stroke-opacity="1" stroke-miterlimit="10" d="M 68.030623 0.000679765 L 68.030623 6.804843 " transform="matrix(0.996058, 0, 0, -0.996058, 0.198465, 88.297552)"/>
<path fill="none" stroke-width="0.3985" stroke-linecap="butt" stroke-linejoin="miter" stroke="rgb(0%, 0%, 0%)" stroke-opacity="1" stroke-miterlimit="10" d="M 68.030623 6.804843 L 54.426218 6.804843 " transform="matrix(0.996058, 0, 0, -0.996058, 0.198465, 88.297552)"/>
<path fill="none" stroke-width="0.3985" stroke-linecap="butt" stroke-linejoin="miter" stroke="rgb(0%, 0%, 0%)" stroke-opacity="1" stroke-miterlimit="10" d="M 81.638949 0.000679765 L 81.638949 6.804843 " transform="matrix(0.996058, 0, 0, -0.996058, 0.198465, 88.297552)"/>
<path fill="none" stroke-width="0.3985" stroke-linecap="butt" stroke-linejoin="miter" stroke="rgb(0%, 0%, 0%)" stroke-opacity="1" stroke-miterlimit="10" d="M 81.638949 6.804843 L 68.030623 6.804843 " transform="matrix(0.996058, 0, 0, -0.996058, 0.198465, 88.297552)"/>
<path fill="none" stroke-width="0.3985" stroke-linecap="butt" stroke-linejoin="miter" stroke="rgb(0%, 0%, 0%)" stroke-opacity="1" stroke-miterlimit="10" d="M 95.243353 0.000679765 L 95.243353 6.804843 " transform="matrix(0.996058, 0, 0, -0.996058, 0.198465, 88.297552)"/>
<path fill="none" stroke-width="0.3985" stroke-linecap="butt" stroke-linejoin="miter" stroke="rgb(0%, 0%, 0%)" stroke-opacity="1" stroke-miterlimit="10" d="M 95.243353 6.804843 L 81.638949 6.804843 " transform="matrix(0.996058, 0, 0, -0.996058, 0.198465, 88.297552)"/>
<path fill="none" stroke-width="0.3985" stroke-linecap="butt" stroke-linejoin="miter" stroke="rgb(0%, 0%, 0%)" stroke-opacity="1" stroke-miterlimit="10" d="M 108.85168 0.000679765 L 108.85168 6.804843 " transform="matrix(0.996058, 0, 0, -0.996058, 0.198465, 88.297552)"/>
<path fill="none" stroke-width="0.3985" stroke-linecap="butt" stroke-linejoin="miter" stroke="rgb(0%, 0%, 0%)" stroke-opacity="1" stroke-miterlimit="10" d="M 108.85168 6.804843 L 95.243353 6.804843 " transform="matrix(0.996058, 0, 0, -0.996058, 0.198465, 88.297552)"/>
<path fill="none" stroke-width="0.3985" stroke-linecap="butt" stroke-linejoin="miter" stroke="rgb(0%, 0%, 0%)" stroke-opacity="1" stroke-miterlimit="10" d="M 122.460006 0.000679765 L 122.460006 6.804843 " transform="matrix(0.996058, 0, 0, -0.996058, 0.198465, 88.297552)"/>
<path fill="none" stroke-width="0.3985" stroke-linecap="butt" stroke-linejoin="miter" stroke="rgb(0%, 0%, 0%)" stroke-opacity="1" stroke-miterlimit="10" d="M 122.460006 6.804843 L 108.85168 6.804843 " transform="matrix(0.996058, 0, 0, -0.996058, 0.198465, 88.297552)"/>
<g clip-path="url(#clip-1786204754120731--22)">
<path fill="none" stroke-width="0.3985" stroke-linecap="butt" stroke-linejoin="miter" stroke="rgb(0%, 0%, 0%)" stroke-opacity="1" stroke-miterlimit="10" d="M 136.06441 0.000679765 L 136.06441 6.804843 " transform="matrix(0.996058, 0, 0, -0.996058, 0.198465, 88.297552)"/>
</g>
<g clip-path="url(#clip-1786204754120731--23)">
<path fill="none" stroke-width="0.3985" stroke-linecap="butt" stroke-linejoin="miter" stroke="rgb(0%, 0%, 0%)" stroke-opacity="1" stroke-miterlimit="10" d="M 136.06441 6.804843 L 122.460006 6.804843 " transform="matrix(0.996058, 0, 0, -0.996058, 0.198465, 88.297552)"/>
</g>
<g clip-path="url(#clip-1786204754120731--24)">
<path fill-rule="nonzero" fill="rgb(87.998962%, 100%, 87.998962%)" fill-opacity="1" d="M 0.199219 95.074219 L 13.75 94.261719 L 13.75 87.484375 L 0.199219 88.296875 Z M 0.199219 95.074219 "/>
</g>
<path fill-rule="nonzero" fill="rgb(87.998962%, 100%, 87.998962%)" fill-opacity="1" d="M 13.75 94.261719 L 27.304688 91.820312 L 27.304688 85.046875 L 13.75 87.484375 Z M 13.75 94.261719 "/>
<path fill-rule="nonzero" fill="rgb(87.998962%, 100%, 87.998962%)" fill-opacity="1" d="M 27.304688 91.820312 L 40.855469 87.753906 L 40.855469 80.980469 L 27.304688 85.046875 Z M 27.304688 91.820312 "/>
<path fill-rule="nonzero" fill="rgb(87.998962%, 100%, 87.998962%)" fill-opacity="1" d="M 40.855469 87.753906 L 54.410156 82.0625 L 54.410156 75.285156 L 40.855469 80.980469 Z M 40.855469 87.753906 "/>
<path fill-rule="nonzero" fill="rgb(87.998962%, 100%, 87.998962%)" fill-opacity="1" d="M 54.410156 82.0625 L 67.960938 74.746094 L 67.960938 67.96875 L 54.410156 75.285156 Z M 54.410156 82.0625 "/>
<path fill-rule="nonzero" fill="rgb(87.998962%, 100%, 87.998962%)" fill-opacity="1" d="M 67.960938 74.746094 L 81.515625 65.800781 L 81.515625 59.023438 L 67.960938 67.96875 Z M 67.960938 74.746094 "/>
<path fill-rule="nonzero" fill="rgb(87.998962%, 100%, 87.998962%)" fill-opacity="1" d="M 81.515625 65.800781 L 95.066406 55.230469 L 95.066406 48.453125 L 81.515625 59.023438 Z M 81.515625 65.800781 "/>
<path fill-rule="nonzero" fill="rgb(87.998962%, 100%, 87.998962%)" fill-opacity="1" d="M 95.066406 55.230469 L 108.621094 43.03125 L 108.621094 36.253906 L 95.066406 48.453125 Z M 95.066406 55.230469 "/>
<path fill-rule="nonzero" fill="rgb(87.998962%, 100%, 87.998962%)" fill-opacity="1" d="M 108.621094 43.03125 L 122.175781 29.207031 L 122.175781 22.429688 L 108.621094 36.253906 Z M 108.621094 43.03125 "/>
<g clip-path="url(#clip-1786204754120731--25)">
<path fill-rule="nonzero" fill="rgb(87.998962%, 100%, 87.998962%)" fill-opacity="1" d="M 122.175781 29.207031 L 135.726562 13.757812 L 135.726562 6.980469 L 122.175781 22.429688 Z M 122.175781 29.207031 "/>
</g>
<path fill-rule="nonzero" fill="rgb(87.998962%, 100%, 87.998962%)" fill-opacity="1" d="M 0.199219 88.296875 L 13.75 87.484375 L 13.75 80.707031 L 0.199219 81.519531 Z M 0.199219 88.296875 "/>
<path fill-rule="nonzero" fill="rgb(87.998962%, 100%, 87.998962%)" fill-opacity="1" d="M 13.75 87.484375 L 27.304688 85.046875 L 27.304688 78.269531 L 13.75 80.707031 Z M 13.75 87.484375 "/>
<path fill-rule="nonzero" fill="rgb(87.998962%, 100%, 87.998962%)" fill-opacity="1" d="M 27.304688 85.046875 L 40.855469 80.980469 L 40.855469 74.203125 L 27.304688 78.269531 Z M 27.304688 85.046875 "/>
<path fill-rule="nonzero" fill="rgb(87.998962%, 100%, 87.998962%)" fill-opacity="1" d="M 40.855469 80.980469 L 54.410156 75.285156 L 54.410156 68.511719 L 40.855469 74.203125 Z M 40.855469 80.980469 "/>
<path fill-rule="nonzero" fill="rgb(87.998962%, 100%, 87.998962%)" fill-opacity="1" d="M 54.410156 75.285156 L 67.960938 67.96875 L 67.960938 61.191406 L 54.410156 68.511719 Z M 54.410156 75.285156 "/>
<path fill-rule="nonzero" fill="rgb(87.998962%, 100%, 87.998962%)" fill-opacity="1" d="M 67.960938 67.96875 L 81.515625 59.023438 L 81.515625 52.246094 L 67.960938 61.191406 Z M 67.960938 67.96875 "/>
<path fill-rule="nonzero" fill="rgb(87.998962%, 100%, 87.998962%)" fill-opacity="1" d="M 81.515625 59.023438 L 95.066406 48.453125 L 95.066406 41.675781 L 81.515625 52.246094 Z M 81.515625 59.023438 "/>
<path fill-rule="nonzero" fill="rgb(87.998962%, 100%, 87.998962%)" fill-opacity="1" d="M 95.066406 48.453125 L 108.621094 36.253906 L 108.621094 29.480469 L 95.066406 41.675781 Z M 95.066406 48.453125 "/>
<path fill-rule="nonzero" fill="rgb(87.998962%, 100%, 87.998962%)" fill-opacity="1" d="M 108.621094 36.253906 L 122.175781 22.429688 L 122.175781 15.65625 L 108.621094 29.480469 Z M 108.621094 36.253906 "/>
<g clip-path="url(#clip-1786204754120731--26)">
<path fill-rule="nonzero" fill="rgb(87.998962%, 100%, 87.998962%)" fill-opacity="1" d="M 122.175781 22.429688 L 135.726562 6.980469 L 135.726562 0.203125 L 122.175781 15.65625 Z M 122.175781 22.429688 "/>
</g>
<g clip-path="url(#clip-1786204754120731--27)">
<path fill="none" stroke-width="0.3985" stroke-linecap="butt" stroke-linejoin="miter" stroke="rgb(0%, 0%, 0%)" stroke-opacity="1" stroke-miterlimit="10" d="M 0.000757099 -6.803483 L 13.605162 -5.987768 " transform="matrix(0.996058, 0, 0, -0.996058, 0.198465, 88.297552)"/>
</g>
<path fill="none" stroke-width="0.3985" stroke-linecap="butt" stroke-linejoin="miter" stroke="rgb(0%, 0%, 0%)" stroke-opacity="1" stroke-miterlimit="10" d="M 13.605162 -5.987768 L 13.605162 0.816395 " transform="matrix(0.996058, 0, 0, -0.996058, 0.198465, 88.297552)"/>
<path fill="none" stroke-width="0.3985" stroke-linecap="butt" stroke-linejoin="miter" stroke="rgb(0%, 0%, 0%)" stroke-opacity="1" stroke-miterlimit="10" d="M 13.605162 0.816395 L 0.000757099 0.000679765 " transform="matrix(0.996058, 0, 0, -0.996058, 0.198465, 88.297552)"/>
<g clip-path="url(#clip-1786204754120731--28)">
<path fill="none" stroke-width="0.3985" stroke-linecap="butt" stroke-linejoin="miter" stroke="rgb(0%, 0%, 0%)" stroke-opacity="1" stroke-miterlimit="10" d="M 0.000757099 0.000679765 L 0.000757099 -6.803483 " transform="matrix(0.996058, 0, 0, -0.996058, 0.198465, 88.297552)"/>
</g>
<g clip-path="url(#clip-1786204754120731--29)">
<path fill="none" stroke-width="0.3985" stroke-linecap="butt" stroke-linejoin="miter" stroke="rgb(0%, 0%, 0%)" stroke-opacity="1" stroke-miterlimit="10" d="M 13.605162 -5.987768 L 27.213488 -3.536701 " transform="matrix(0.996058, 0, 0, -0.996058, 0.198465, 88.297552)"/>
</g>
<path fill="none" stroke-width="0.3985" stroke-linecap="butt" stroke-linejoin="miter" stroke="rgb(0%, 0%, 0%)" stroke-opacity="1" stroke-miterlimit="10" d="M 27.213488 -3.536701 L 27.213488 3.263541 " transform="matrix(0.996058, 0, 0, -0.996058, 0.198465, 88.297552)"/>
<path fill="none" stroke-width="0.3985" stroke-linecap="butt" stroke-linejoin="miter" stroke="rgb(0%, 0%, 0%)" stroke-opacity="1" stroke-miterlimit="10" d="M 27.213488 3.263541 L 13.605162 0.816395 " transform="matrix(0.996058, 0, 0, -0.996058, 0.198465, 88.297552)"/>
<g clip-path="url(#clip-1786204754120731--30)">
<path fill="none" stroke-width="0.3985" stroke-linecap="butt" stroke-linejoin="miter" stroke="rgb(0%, 0%, 0%)" stroke-opacity="1" stroke-miterlimit="10" d="M 27.213488 -3.536701 L 40.817892 0.545797 " transform="matrix(0.996058, 0, 0, -0.996058, 0.198465, 88.297552)"/>
</g>
<path fill="none" stroke-width="0.3985" stroke-linecap="butt" stroke-linejoin="miter" stroke="rgb(0%, 0%, 0%)" stroke-opacity="1" stroke-miterlimit="10" d="M 40.817892 0.545797 L 40.817892 7.346039 " transform="matrix(0.996058, 0, 0, -0.996058, 0.198465, 88.297552)"/>
<path fill="none" stroke-width="0.3985" stroke-linecap="butt" stroke-linejoin="miter" stroke="rgb(0%, 0%, 0%)" stroke-opacity="1" stroke-miterlimit="10" d="M 40.817892 7.346039 L 27.213488 3.263541 " transform="matrix(0.996058, 0, 0, -0.996058, 0.198465, 88.297552)"/>
<path fill="none" stroke-width="0.3985" stroke-linecap="butt" stroke-linejoin="miter" stroke="rgb(0%, 0%, 0%)" stroke-opacity="1" stroke-miterlimit="10" d="M 40.817892 0.545797 L 54.426218 6.259725 " transform="matrix(0.996058, 0, 0, -0.996058, 0.198465, 88.297552)"/>
<path fill="none" stroke-width="0.3985" stroke-linecap="butt" stroke-linejoin="miter" stroke="rgb(0%, 0%, 0%)" stroke-opacity="1" stroke-miterlimit="10" d="M 54.426218 6.259725 L 54.426218 13.063889 " transform="matrix(0.996058, 0, 0, -0.996058, 0.198465, 88.297552)"/>
<path fill="none" stroke-width="0.3985" stroke-linecap="butt" stroke-linejoin="miter" stroke="rgb(0%, 0%, 0%)" stroke-opacity="1" stroke-miterlimit="10" d="M 54.426218 13.063889 L 40.817892 7.346039 " transform="matrix(0.996058, 0, 0, -0.996058, 0.198465, 88.297552)"/>
<path fill="none" stroke-width="0.3985" stroke-linecap="butt" stroke-linejoin="miter" stroke="rgb(0%, 0%, 0%)" stroke-opacity="1" stroke-miterlimit="10" d="M 54.426218 6.259725 L 68.030623 13.605084 " transform="matrix(0.996058, 0, 0, -0.996058, 0.198465, 88.297552)"/>
<path fill="none" stroke-width="0.3985" stroke-linecap="butt" stroke-linejoin="miter" stroke="rgb(0%, 0%, 0%)" stroke-opacity="1" stroke-miterlimit="10" d="M 68.030623 13.605084 L 68.030623 20.409247 " transform="matrix(0.996058, 0, 0, -0.996058, 0.198465, 88.297552)"/>
<path fill="none" stroke-width="0.3985" stroke-linecap="butt" stroke-linejoin="miter" stroke="rgb(0%, 0%, 0%)" stroke-opacity="1" stroke-miterlimit="10" d="M 68.030623 20.409247 L 54.426218 13.063889 " transform="matrix(0.996058, 0, 0, -0.996058, 0.198465, 88.297552)"/>
<path fill="none" stroke-width="0.3985" stroke-linecap="butt" stroke-linejoin="miter" stroke="rgb(0%, 0%, 0%)" stroke-opacity="1" stroke-miterlimit="10" d="M 68.030623 13.605084 L 81.638949 22.585795 " transform="matrix(0.996058, 0, 0, -0.996058, 0.198465, 88.297552)"/>
<path fill="none" stroke-width="0.3985" stroke-linecap="butt" stroke-linejoin="miter" stroke="rgb(0%, 0%, 0%)" stroke-opacity="1" stroke-miterlimit="10" d="M 81.638949 22.585795 L 81.638949 29.389958 " transform="matrix(0.996058, 0, 0, -0.996058, 0.198465, 88.297552)"/>
<path fill="none" stroke-width="0.3985" stroke-linecap="butt" stroke-linejoin="miter" stroke="rgb(0%, 0%, 0%)" stroke-opacity="1" stroke-miterlimit="10" d="M 81.638949 29.389958 L 68.030623 20.409247 " transform="matrix(0.996058, 0, 0, -0.996058, 0.198465, 88.297552)"/>
<path fill="none" stroke-width="0.3985" stroke-linecap="butt" stroke-linejoin="miter" stroke="rgb(0%, 0%, 0%)" stroke-opacity="1" stroke-miterlimit="10" d="M 81.638949 22.585795 L 95.243353 33.197937 " transform="matrix(0.996058, 0, 0, -0.996058, 0.198465, 88.297552)"/>
<path fill="none" stroke-width="0.3985" stroke-linecap="butt" stroke-linejoin="miter" stroke="rgb(0%, 0%, 0%)" stroke-opacity="1" stroke-miterlimit="10" d="M 95.243353 33.197937 L 95.243353 40.0021 " transform="matrix(0.996058, 0, 0, -0.996058, 0.198465, 88.297552)"/>
<path fill="none" stroke-width="0.3985" stroke-linecap="butt" stroke-linejoin="miter" stroke="rgb(0%, 0%, 0%)" stroke-opacity="1" stroke-miterlimit="10" d="M 95.243353 40.0021 L 81.638949 29.389958 " transform="matrix(0.996058, 0, 0, -0.996058, 0.198465, 88.297552)"/>
<path fill="none" stroke-width="0.3985" stroke-linecap="butt" stroke-linejoin="miter" stroke="rgb(0%, 0%, 0%)" stroke-opacity="1" stroke-miterlimit="10" d="M 95.243353 33.197937 L 108.85168 45.44543 " transform="matrix(0.996058, 0, 0, -0.996058, 0.198465, 88.297552)"/>
<path fill="none" stroke-width="0.3985" stroke-linecap="butt" stroke-linejoin="miter" stroke="rgb(0%, 0%, 0%)" stroke-opacity="1" stroke-miterlimit="10" d="M 108.85168 45.44543 L 108.85168 52.249593 " transform="matrix(0.996058, 0, 0, -0.996058, 0.198465, 88.297552)"/>
<path fill="none" stroke-width="0.3985" stroke-linecap="butt" stroke-linejoin="miter" stroke="rgb(0%, 0%, 0%)" stroke-opacity="1" stroke-miterlimit="10" d="M 108.85168 52.249593 L 95.243353 40.0021 " transform="matrix(0.996058, 0, 0, -0.996058, 0.198465, 88.297552)"/>
<path fill="none" stroke-width="0.3985" stroke-linecap="butt" stroke-linejoin="miter" stroke="rgb(0%, 0%, 0%)" stroke-opacity="1" stroke-miterlimit="10" d="M 108.85168 45.44543 L 122.460006 59.324354 " transform="matrix(0.996058, 0, 0, -0.996058, 0.198465, 88.297552)"/>
<path fill="none" stroke-width="0.3985" stroke-linecap="butt" stroke-linejoin="miter" stroke="rgb(0%, 0%, 0%)" stroke-opacity="1" stroke-miterlimit="10" d="M 122.460006 59.324354 L 122.460006 66.128517 " transform="matrix(0.996058, 0, 0, -0.996058, 0.198465, 88.297552)"/>
<path fill="none" stroke-width="0.3985" stroke-linecap="butt" stroke-linejoin="miter" stroke="rgb(0%, 0%, 0%)" stroke-opacity="1" stroke-miterlimit="10" d="M 122.460006 66.128517 L 108.85168 52.249593 " transform="matrix(0.996058, 0, 0, -0.996058, 0.198465, 88.297552)"/>
<g clip-path="url(#clip-1786204754120731--31)">
<path fill="none" stroke-width="0.3985" stroke-linecap="butt" stroke-linejoin="miter" stroke="rgb(0%, 0%, 0%)" stroke-opacity="1" stroke-miterlimit="10" d="M 122.460006 59.324354 L 136.06441 74.834709 " transform="matrix(0.996058, 0, 0, -0.996058, 0.198465, 88.297552)"/>
</g>
<g clip-path="url(#clip-1786204754120731--32)">
<path fill="none" stroke-width="0.3985" stroke-linecap="butt" stroke-linejoin="miter" stroke="rgb(0%, 0%, 0%)" stroke-opacity="1" stroke-miterlimit="10" d="M 136.06441 74.834709 L 136.06441 81.638872 " transform="matrix(0.996058, 0, 0, -0.996058, 0.198465, 88.297552)"/>
</g>
<g clip-path="url(#clip-1786204754120731--33)">
<path fill="none" stroke-width="0.3985" stroke-linecap="butt" stroke-linejoin="miter" stroke="rgb(0%, 0%, 0%)" stroke-opacity="1" stroke-miterlimit="10" d="M 136.06441 81.638872 L 122.460006 66.128517 " transform="matrix(0.996058, 0, 0, -0.996058, 0.198465, 88.297552)"/>
</g>
<path fill="none" stroke-width="0.3985" stroke-linecap="butt" stroke-linejoin="miter" stroke="rgb(0%, 0%, 0%)" stroke-opacity="1" stroke-miterlimit="10" d="M 13.605162 0.816395 L 13.605162 7.620558 " transform="matrix(0.996058, 0, 0, -0.996058, 0.198465, 88.297552)"/>
<path fill="none" stroke-width="0.3985" stroke-linecap="butt" stroke-linejoin="miter" stroke="rgb(0%, 0%, 0%)" stroke-opacity="1" stroke-miterlimit="10" d="M 13.605162 7.620558 L 0.000757099 6.804843 " transform="matrix(0.996058, 0, 0, -0.996058, 0.198465, 88.297552)"/>
<path fill="none" stroke-width="0.3985" stroke-linecap="butt" stroke-linejoin="miter" stroke="rgb(0%, 0%, 0%)" stroke-opacity="1" stroke-miterlimit="10" d="M 0.000757099 6.804843 L 0.000757099 0.000679765 " transform="matrix(0.996058, 0, 0, -0.996058, 0.198465, 88.297552)"/>
<path fill="none" stroke-width="0.3985" stroke-linecap="butt" stroke-linejoin="miter" stroke="rgb(0%, 0%, 0%)" stroke-opacity="1" stroke-miterlimit="10" d="M 27.213488 3.263541 L 27.213488 10.067704 " transform="matrix(0.996058, 0, 0, -0.996058, 0.198465, 88.297552)"/>
<path fill="none" stroke-width="0.3985" stroke-linecap="butt" stroke-linejoin="miter" stroke="rgb(0%, 0%, 0%)" stroke-opacity="1" stroke-miterlimit="10" d="M 27.213488 10.067704 L 13.605162 7.620558 " transform="matrix(0.996058, 0, 0, -0.996058, 0.198465, 88.297552)"/>
<path fill="none" stroke-width="0.3985" stroke-linecap="butt" stroke-linejoin="miter" stroke="rgb(0%, 0%, 0%)" stroke-opacity="1" stroke-miterlimit="10" d="M 40.817892 7.346039 L 40.817892 14.150202 " transform="matrix(0.996058, 0, 0, -0.996058, 0.198465, 88.297552)"/>
<path fill="none" stroke-width="0.3985" stroke-linecap="butt" stroke-linejoin="miter" stroke="rgb(0%, 0%, 0%)" stroke-opacity="1" stroke-miterlimit="10" d="M 40.817892 14.150202 L 27.213488 10.067704 " transform="matrix(0.996058, 0, 0, -0.996058, 0.198465, 88.297552)"/>
<path fill="none" stroke-width="0.3985" stroke-linecap="butt" stroke-linejoin="miter" stroke="rgb(0%, 0%, 0%)" stroke-opacity="1" stroke-miterlimit="10" d="M 54.426218 13.063889 L 54.426218 19.86413 " transform="matrix(0.996058, 0, 0, -0.996058, 0.198465, 88.297552)"/>
<path fill="none" stroke-width="0.3985" stroke-linecap="butt" stroke-linejoin="miter" stroke="rgb(0%, 0%, 0%)" stroke-opacity="1" stroke-miterlimit="10" d="M 54.426218 19.86413 L 40.817892 14.150202 " transform="matrix(0.996058, 0, 0, -0.996058, 0.198465, 88.297552)"/>
<path fill="none" stroke-width="0.3985" stroke-linecap="butt" stroke-linejoin="miter" stroke="rgb(0%, 0%, 0%)" stroke-opacity="1" stroke-miterlimit="10" d="M 68.030623 20.409247 L 68.030623 27.21341 " transform="matrix(0.996058, 0, 0, -0.996058, 0.198465, 88.297552)"/>
<path fill="none" stroke-width="0.3985" stroke-linecap="butt" stroke-linejoin="miter" stroke="rgb(0%, 0%, 0%)" stroke-opacity="1" stroke-miterlimit="10" d="M 68.030623 27.21341 L 54.426218 19.86413 " transform="matrix(0.996058, 0, 0, -0.996058, 0.198465, 88.297552)"/>
<path fill="none" stroke-width="0.3985" stroke-linecap="butt" stroke-linejoin="miter" stroke="rgb(0%, 0%, 0%)" stroke-opacity="1" stroke-miterlimit="10" d="M 81.638949 29.389958 L 81.638949 36.194121 " transform="matrix(0.996058, 0, 0, -0.996058, 0.198465, 88.297552)"/>
<path fill="none" stroke-width="0.3985" stroke-linecap="butt" stroke-linejoin="miter" stroke="rgb(0%, 0%, 0%)" stroke-opacity="1" stroke-miterlimit="10" d="M 81.638949 36.194121 L 68.030623 27.21341 " transform="matrix(0.996058, 0, 0, -0.996058, 0.198465, 88.297552)"/>
<path fill="none" stroke-width="0.3985" stroke-linecap="butt" stroke-linejoin="miter" stroke="rgb(0%, 0%, 0%)" stroke-opacity="1" stroke-miterlimit="10" d="M 95.243353 40.0021 L 95.243353 46.806263 " transform="matrix(0.996058, 0, 0, -0.996058, 0.198465, 88.297552)"/>
<path fill="none" stroke-width="0.3985" stroke-linecap="butt" stroke-linejoin="miter" stroke="rgb(0%, 0%, 0%)" stroke-opacity="1" stroke-miterlimit="10" d="M 95.243353 46.806263 L 81.638949 36.194121 " transform="matrix(0.996058, 0, 0, -0.996058, 0.198465, 88.297552)"/>
<path fill="none" stroke-width="0.3985" stroke-linecap="butt" stroke-linejoin="miter" stroke="rgb(0%, 0%, 0%)" stroke-opacity="1" stroke-miterlimit="10" d="M 108.85168 52.249593 L 108.85168 59.049835 " transform="matrix(0.996058, 0, 0, -0.996058, 0.198465, 88.297552)"/>
<path fill="none" stroke-width="0.3985" stroke-linecap="butt" stroke-linejoin="miter" stroke="rgb(0%, 0%, 0%)" stroke-opacity="1" stroke-miterlimit="10" d="M 108.85168 59.049835 L 95.243353 46.806263 " transform="matrix(0.996058, 0, 0, -0.996058, 0.198465, 88.297552)"/>
<path fill="none" stroke-width="0.3985" stroke-linecap="butt" stroke-linejoin="miter" stroke="rgb(0%, 0%, 0%)" stroke-opacity="1" stroke-miterlimit="10" d="M 122.460006 66.128517 L 122.460006 72.928759 " transform="matrix(0.996058, 0, 0, -0.996058, 0.198465, 88.297552)"/>
<path fill="none" stroke-width="0.3985" stroke-linecap="butt" stroke-linejoin="miter" stroke="rgb(0%, 0%, 0%)" stroke-opacity="1" stroke-miterlimit="10" d="M 122.460006 72.928759 L 108.85168 59.049835 " transform="matrix(0.996058, 0, 0, -0.996058, 0.198465, 88.297552)"/>
<g clip-path="url(#clip-1786204754120731--34)">
<path fill="none" stroke-width="0.3985" stroke-linecap="butt" stroke-linejoin="miter" stroke="rgb(0%, 0%, 0%)" stroke-opacity="1" stroke-miterlimit="10" d="M 136.06441 81.638872 L 136.06441 88.443035 " transform="matrix(0.996058, 0, 0, -0.996058, 0.198465, 88.297552)"/>
</g>
<g clip-path="url(#clip-1786204754120731--35)">
<path fill="none" stroke-width="0.3985" stroke-linecap="butt" stroke-linejoin="miter" stroke="rgb(0%, 0%, 0%)" stroke-opacity="1" stroke-miterlimit="10" d="M 136.06441 88.443035 L 122.460006 72.928759 " transform="matrix(0.996058, 0, 0, -0.996058, 0.198465, 88.297552)"/>
</g>
</svg>

